Coordinates
version=1
nRows=21
nColumns=33
inDegrees=yes

Units are S.I. units (second, meters, Newtons, ...)
Angles are in degrees.

endheader
time	ground_thorax_rot_x	ground_thorax_rot_y	ground_thorax_rot_z	ground_thorax_tx	ground_thorax_ty	ground_thorax_tz	clav_prot_r	clav_elev_r	scapula_abduction_r	scapula_elevation_r	scapula_upward_rot_r	scapula_winging_r	shoulder_elv_r	plane_of_elev_r	axial_rot_r	elbow_flexion_r	pro_sup_r	wrist_flex_r	wrist_dev_r	clav_prot_l	clav_elev_l	scapula_abduction_l	scapula_elevation_l	scapula_upward_rot_l	scapula_winging_l	shoulder_elv_l	plane_of_elev_l	axial_rot_l	elbow_flexion_l	pro_sup_l	wrist_flex_l	wrist_dev_l
      3.33000000	    -38.99165947	     -7.76727329	      8.25634065	    -84.31980047	    778.47780246	      4.38472770	      7.93096694	    -45.00000000	     45.00000000	    -45.00000000	    -19.96309675	  -1168.96461789	  -2991.99787660	    147.73455005	   -147.27429675	   2168.08516782	     26.15148228	     16.73255276	     14.36584106	     14.98299961	     42.11170745	    -45.00000000	    -40.56816123	    -19.39648352	   2601.70058321	  -2984.29567995	    136.82615522	    179.99999979	   -714.77390055	     20.67025798	     10.89152260	    -17.90601960
      3.34000000	    -39.14702786	     -7.40146482	      8.02480355	    -85.93734117	    779.20201906	      3.93533204	      7.57724773	    -45.00000000	     45.00000000	    -45.00000000	    -19.31928368	  -1169.13103776	  -2991.92960683	    147.78710786	   -146.51404021	   2168.22757519	     26.17478523	     16.98686013	     14.04041617	     14.68552017	     42.54863805	    -45.00000000	    -40.71867591	    -18.63384488	   2601.99877915	  -2984.34122183	    136.97951761	    179.99999979	   -714.54756362	     20.68797379	     10.95536747	    -17.91516218
      3.35000000	    -39.29098507	     -7.25044082	      8.07827640	    -87.84765612	    780.00948257	      3.46963393	      7.52532355	    -45.00000000	     45.00000000	    -45.00000000	    -19.20070423	  -1169.35931383	  -2991.76127015	    147.78299600	   -145.93040234	   2168.47824189	     26.08459909	     17.06120764	     13.78280957	     14.59682505	     42.77021133	    -45.00000000	    -40.95030977	    -18.48454472	   2602.27047868	  -2984.30652141	    137.00564173	    179.99999979	   -714.40422070	     20.42586395	     10.85383215	    -17.99490116
      3.36000000	    -39.46750883	     -7.11709045	      8.22693943	    -90.04399776	    780.91109845	      3.00864618	      7.53992229	    -45.00000000	     45.00000000	    -45.00000000	    -19.31400263	  -1169.61467833	  -2991.57986172	    147.76721705	   -145.56954645	   2168.69021735	     25.88426467	     17.12109453	     13.54028631	     14.67837666	     43.11186704	    -45.00000000	    -41.25979602	    -18.55692003	   2602.51639291	  -2984.22121067	    136.94424328	    179.99999979	   -714.28573231	     19.88556070	     10.74766775	    -18.02578842
      3.37000000	    -39.62553434	     -7.00208582	      8.30923954	    -92.52981925	    781.92373176	      2.56255658	      7.52295916	    -45.00000000	     45.00000000	    -45.00000000	    -19.34272220	  -1169.87407344	  -2991.32477004	    147.74274918	   -145.25890048	   2168.92685554	     25.61869190	     17.19527667	     13.31104485	     14.56781367	     43.33984240	    -45.00000000	    -41.53297451	    -18.50397912	   2602.82105465	  -2984.17983691	    136.99656341	    179.99999979	   -714.13679209	     19.18138906	     10.73075145	    -18.06649122
      3.38000000	    -39.85256135	     -7.23546317	      8.85167673	    -95.29649873	    783.05398104	      2.14044095	      7.82797908	    -45.00000000	     45.00000000	    -45.00000000	    -20.27888353	  -1170.31362026	  -2991.22440320	    147.53962088	   -145.21419825	   2169.16998630	     25.04990573	     17.22334882	     13.07646629	     15.72921794	     43.67284182	    -45.00000000	    -42.09488019	    -19.71361769	   2603.08146506	  -2983.96176848	    136.66266394	    179.99999979	   -714.01893250	     17.72025258	     10.44464160	    -17.95470292
      3.39000000	    -40.01976486	     -6.95543016	      8.71319224	    -98.33344309	    784.30951407	      1.74806411	      7.69076608	    -45.00000000	     45.00000000	    -45.00000000	    -19.98175332	  -1170.50805306	  -2990.88574269	    147.62484926	   -144.95923810	   2169.39144829	     24.66621766	     17.31440924	     12.88335791	     14.93456154	     44.02911295	    -45.00000000	    -42.35118188	    -19.25318108	   2603.35088284	  -2983.98782086	    136.87909113	    179.99999979	   -713.88746690	     16.74365798	     10.66270264	    -17.99663251
      3.40000000	    -40.20569394	     -7.29328250	      9.37830488	   -101.63427806	    785.68680353	      1.38863856	      7.99114621	    -45.00000000	     45.00000000	    -45.00000000	    -21.05368207	  -1170.99626809	  -2990.75023019	    147.48752111	   -144.92713363	   2169.60857620	     23.92148032	     17.36042386	     12.68821865	     16.17971800	     44.09232832	    -45.00000000	    -42.88039793	    -20.67609149	   2603.51867566	  -2983.69348929	    136.69680949	    179.99999979	   -713.77291602	     14.93309289	     10.41813900	    -17.88047822
      3.41000000	    -40.38331686	     -6.87699219	      9.02226470	   -105.17673343	    787.18893868	      1.06635568	      7.69054785	    -45.00000000	     45.00000000	    -45.00000000	    -20.35142344	  -1171.18514694	  -2990.38573899	    147.66092088	   -144.66007761	   2169.85732861	     23.51803447	     17.49355714	     12.50515089	     14.71321069	     44.39549953	    -45.00000000	    -43.09567242	    -19.71929416	   2603.88150323	  -2983.82209950	    137.09689274	    179.99999979	   -713.59206075	     14.03640682	     10.83486314	    -17.97273718
      3.42000000	    -40.57267827	     -7.42218115	      9.93187996	   -108.94427935	    788.80504789	      0.78447530	      8.18118209	    -45.00000000	     45.00000000	    -45.00000000	    -21.89609152	  -1171.78175496	  -2990.28173062	    147.42661788	   -144.83442542	   2170.03886326	     22.59895518	     17.51990369	     12.32656606	     16.66692541	     44.57807708	    -45.00000000	    -43.83279993	    -22.09031581	   2603.93921482	  -2983.38352116	    136.68732771	    179.99999979	   -713.46602168	     11.92378441	     10.40367093	    -17.81194771
      3.43000000	    -40.70872204	     -7.48832895	     10.27369337	   -112.91791586	    790.53766635	      0.54598157	      8.28871523	    -45.00000000	     45.00000000	    -45.00000000	    -22.41250250	  -1172.19584253	  -2989.99917359	    147.41603930	   -144.92547365	   2170.17652452	     21.75797200	     17.59688569	     12.19842784	     16.97054696	     44.66432926	    -45.00000000	    -44.30381747	    -22.93406042	   2604.06957330	  -2983.24049057	    136.70936862	    179.99999979	   -713.31806593	      9.83491320	     10.44152682	    -17.71907721
      3.44000000	    -40.86163177	     -6.96778335	      9.83330767	   -117.07482171	    792.37686172	      0.35326336	      7.98148797	    -45.00000000	     45.00000000	    -45.00000000	    -21.70651117	  -1172.46148527	  -2989.67444503	    147.53706518	   -144.76504493	   2170.26929117	     21.31512183	     17.71701074	     12.01898917	     15.52173953	     45.00000000	    -45.00000000	    -44.49754824	    -22.08138698	   2604.38400172	  -2983.28763777	    137.07139474	    179.99999979	   -713.26062789	      8.86242767	     10.83117658	    -17.77130367
      3.45000000	    -40.95419322	     -6.99073055	     10.07393613	   -121.40989587	    794.31244556	      0.20729283	      7.94459540	    -45.00000000	     45.00000000	    -45.00000000	    -21.91095626	  -1172.98237037	  -2989.42315097	    147.54289649	   -144.37575815	   2170.46643232	     20.85753313	     17.84279252	     11.78797862	     15.55385181	     45.00000000	    -45.00000000	    -44.80693448	    -22.71696345	   2604.58711475	  -2983.06986427	    137.19610488	    179.99999979	   -713.09442173	      7.81729085	     10.78633120	    -17.83333733
      3.46000000	    -41.01397796	     -7.07851859	     10.34718624	   -125.89811572	    796.32444382	      0.10666504	      7.98508517	    -45.00000000	     45.00000000	    -45.00000000	    -22.29735121	  -1173.50648322	  -2989.16018595	    147.53405046	   -144.25817736	   2170.65147518	     20.33623587	     17.96023446	     11.56192216	     15.82632932	     45.00000000	    -45.00000000	    -45.00000000	    -23.58205176	   2604.89922307	  -2982.75772087	    137.16751739	    179.99999979	   -712.97818785	      6.57040382	     10.69417428	    -17.84942168
      3.47000000	    -40.92356112	     -7.53249500	     11.10392248	   -130.51507087	    798.38582086	      0.04767319	      8.64183566	    -45.00000000	     45.00000000	    -45.00000000	    -23.73282277	  -1174.12179788	  -2988.78753123	    147.32161163	   -144.25718899	   2170.77680982	     19.58445820	     17.98698593	     11.34989591	     17.22316763	     44.80077779	    -45.00000000	    -45.00000000	    -25.52938674	   2605.31883598	  -2982.11465373	    136.76682968	    179.99999979	   -712.95326352	      4.62925093	     10.46543054	    -17.65561434
      3.48000000	    -40.91800712	     -7.56757765	     11.27231117	   -135.25172939	    800.47963186	      0.02368987	      7.98193184	    -45.00000000	     45.00000000	    -45.00000000	    -24.01426455	  -1174.55068131	  -2988.45524487	    147.43314303	   -144.23437316	   2170.91986397	     19.15476421	     18.16815161	     10.94768697	     15.29631695	     44.20390631	    -44.63943552	    -45.00000000	    -24.89469258	   2605.66452652	  -2982.16441229	    137.21404883	    179.99999979	   -712.90454394	      3.61100551	     10.85609478	    -17.80453521
      3.49000000	    -40.66653009	     -8.27514256	     12.18211236	   -140.09777849	    802.57875777	      0.02668106	      9.10130283	    -45.00000000	     44.90856493	    -45.00000000	    -25.41289490	  -1175.10402430	  -2988.00962410	    147.22199008	   -143.73556390	   2170.97430635	     18.46660424	     18.17104809	     10.96322346	     17.20719964	     43.76097041	    -44.16359120	    -45.00000000	    -27.49120072	   2605.46898262	  -2981.14064659	    136.88561831	    179.99999979	   -712.91534712	      1.52844025	     10.42980876	    -17.51165782
      3.50000000	    -40.73961013	     -7.99879935	     12.01598640	   -145.02948294	    804.66686134	      0.04878626	      8.63431251	    -45.00000000	     44.59407700	    -45.00000000	    -25.96460504	  -1175.15640947	  -2987.43480189	    147.29443481	   -143.66027949	   2171.14038899	     18.06009916	     18.27296987	     10.56796247	     16.45922186	     44.00894374	    -43.68181267	    -45.00000000	    -27.12890581	   2605.66102602	  -2980.79820156	    136.94729560	    179.99999979	   -712.89575101	      0.50788105	     10.81621000	    -17.45835942
      3.51000000	    -40.68378322	     -8.21391409	     12.37850740	   -150.03344365	    806.72683561	      0.08157555	      8.67068201	    -45.00000000	     44.22746912	    -45.00000000	    -26.92840753	  -1175.44062879	  -2987.02271286	    147.23832026	   -143.25681002	   2171.24075905	     17.79445043	     18.34482462	     10.25553023	     16.41204729	     43.77026894	    -43.31408753	    -45.00000000	    -27.90944151	   2605.82079209	  -2980.34683610	    136.98992287	    179.99999979	   -712.94876868	     -0.38516013	     10.84847493	    -17.39609085
      3.52000000	    -40.43448485	     -8.90001862	     13.50639713	   -155.09164561	    808.74884945	      0.11940138	      9.12471978	    -45.00000000	     43.85996229	    -45.00000000	    -28.60468246	  -1176.14225671	  -2986.70387497	    146.99279190	   -142.28770939	   2171.24746815	     17.55348830	     18.36813906	     10.00707221	     16.89966194	     42.88898208	    -43.17300257	    -45.00000000	    -30.08513672	   2605.95083295	  -2979.84196823	    136.94732126	    179.99999979	   -712.96058972	     -1.93252173	     10.53649286	    -17.27667624
      3.53000000	    -40.36452277	     -9.04420061	     13.87769730	   -160.18262270	    810.72056401	      0.15812505	      9.14599670	    -45.00000000	     43.55281383	    -45.00000000	    -29.67223667	  -1176.50583191	  -2986.29965835	    146.90857148	   -141.72460996	   2171.35220460	     17.37503931	     18.42234685	      9.71013605	     16.82138203	     42.58040553	    -42.88022966	    -45.00000000	    -31.01280900	   2606.15355215	  -2979.43446336	    136.94280101	    179.99999979	   -713.00899915	     -3.14281990	     10.59777488	    -17.14683103
